<svg xmlns="http://www.w3.org/2000/svg" width="54" height="16" fill="none"><path fill="#FC842D" d="M0 15.404V0h1.074l6.188 9.11L13.438 0h1.085v15.404h-1.149V2.03l-6.09 8.863h-.087L1.096 2.03v13.374H0ZM19.85 9.797c0-.78.147-1.53.44-2.245a6.003 6.003 0 0 1 1.193-1.87 5.458 5.458 0 0 1 1.837-1.278 5.61 5.61 0 0 1 2.31-.483c1.08 0 2.062.268 2.943.806a5.506 5.506 0 0 1 2.062 2.148c.494.895.741 1.87.741 2.922a5.927 5.927 0 0 1-.741 2.911 5.739 5.739 0 0 1-2.084 2.16c-.888.536-1.876.805-2.965.805-.81 0-1.572-.158-2.288-.473a5.562 5.562 0 0 1-1.826-1.267 6.005 6.005 0 0 1-1.193-1.87 6.102 6.102 0 0 1-.43-2.266Zm1.16 0c0 1.353.444 2.503 1.332 3.448.895.938 1.99 1.407 3.287 1.407.816 0 1.576-.214 2.277-.644a4.804 4.804 0 0 0 1.676-1.773 4.924 4.924 0 0 0 .623-2.438c0-1.346-.45-2.492-1.353-3.438-.902-.952-1.991-1.428-3.266-1.428-.83 0-1.597.218-2.299.655a4.616 4.616 0 0 0-1.665 1.772 4.99 4.99 0 0 0-.612 2.439ZM36.445 15.404V4.19h1.085v1.998c.207-.329.415-.615.623-.859.208-.243.458-.476.752-.698.3-.23.648-.405 1.042-.526a4.532 4.532 0 0 1 1.321-.183c.917 0 1.69.225 2.32.677a4.322 4.322 0 0 1 1.461 1.74c.938-1.611 2.288-2.417 4.05-2.417 1.325 0 2.374.426 3.148 1.278.773.852 1.16 1.988 1.16 3.405v6.8h-1.074v-6.67c0-1.204-.294-2.142-.881-2.815-.588-.673-1.4-1.01-2.439-1.01-.988 0-1.826.358-2.514 1.074-.687.717-1.03 1.68-1.03 2.89v6.531h-1.075V8.67c0-1.16-.297-2.077-.892-2.75-.587-.673-1.382-1.01-2.384-1.01-1.003 0-1.852.39-2.546 1.171-.695.774-1.042 1.726-1.042 2.857v6.467h-1.085Z"/></svg>