<svg xmlns="http://www.w3.org/2000/svg" width="49" height="18" fill="none"><path fill="#212121" d="m.3 14.755.741-.86c.874.803 1.737 1.386 2.589 1.752.852.358 1.833.537 2.943.537 1.146 0 2.08-.29 2.804-.87.723-.58 1.085-1.325 1.085-2.235 0-.573-.118-1.05-.355-1.429-.229-.38-.666-.723-1.31-1.03-.637-.309-1.533-.58-2.686-.817-1.854-.38-3.187-.906-3.996-1.58-.802-.68-1.203-1.61-1.203-2.792 0-1.153.47-2.117 1.407-2.89.938-.773 2.12-1.16 3.545-1.16 1.089 0 2.038.15 2.847.451.81.294 1.618.766 2.428 1.418l-.72.902c-.709-.616-1.436-1.06-2.18-1.332a6.932 6.932 0 0 0-2.418-.408c-1.117 0-2.023.283-2.717.849-.695.558-1.042 1.26-1.042 2.105 0 .58.114 1.064.343 1.45.237.38.684.734 1.343 1.064.666.322 1.597.605 2.793.849 1.783.365 3.072.884 3.867 1.557.802.673 1.203 1.583 1.203 2.729 0 1.231-.48 2.241-1.44 3.029-.959.78-2.183 1.17-3.673 1.17-1.21 0-2.313-.2-3.309-.6-.988-.402-1.951-1.021-2.89-1.86ZM17.034 17V.94h1.075V17h-1.075ZM24.144 2.853V1.38h1.332v1.472h-1.332ZM24.273 17V5.785h1.074V17h-1.074ZM31.35 17V5.785h1.085v1.998c.208-.33.416-.616.623-.86.208-.243.459-.475.752-.697.301-.23.648-.405 1.042-.527a4.533 4.533 0 0 1 1.322-.182c.916 0 1.69.225 2.32.676a4.322 4.322 0 0 1 1.46 1.74c.939-1.61 2.289-2.416 4.05-2.416 1.326 0 2.375.426 3.148 1.278.773.852 1.16 1.987 1.16 3.405V17h-1.074v-6.67c0-1.204-.294-2.142-.88-2.815-.588-.674-1.4-1.01-2.44-1.01-.988 0-1.825.358-2.513 1.074-.688.716-1.031 1.68-1.031 2.89V17h-1.075v-6.735c0-1.16-.297-2.077-.891-2.75-.587-.674-1.382-1.01-2.385-1.01-1.002 0-1.851.39-2.546 1.17-.694.774-1.042 1.727-1.042 2.858V17H31.35Z"/></svg>